<?xml version="1.0" encoding="UTF-8"?>
<!DOCTYPE svg PUBLIC "-//W3C//DTD SVG 1.1//EN" "http://www.w3.org/Graphics/SVG/1.1/DTD/svg11.dtd">
<svg xmlns="http://www.w3.org/2000/svg" version="1.1" width="500px" height="500px" style="shape-rendering:geometricPrecision; text-rendering:geometricPrecision; image-rendering:optimizeQuality; fill-rule:evenodd; clip-rule:evenodd" xmlns:xlink="http://www.w3.org/1999/xlink">
<g><path style="opacity:1" fill="#8c52fe" d="M 28.5,-0.5 C 76.5,-0.5 124.5,-0.5 172.5,-0.5C 176.272,2.20027 180.605,3.5336 185.5,3.5C 185.821,5.04814 186.821,5.71481 188.5,5.5C 190.384,9.05922 193.051,12.0592 196.5,14.5C 197.167,14.5 197.5,14.8333 197.5,15.5C 198.936,20.5543 199.936,25.7209 200.5,31C 200.365,34.5343 200.031,38.0343 199.5,41.5C 198.85,43.4352 198.517,45.4352 198.5,47.5C 196.952,47.8212 196.285,48.8212 196.5,50.5C 193.788,51.9896 191.288,51.6562 189,49.5C 187.257,51.3211 185.757,53.3211 184.5,55.5C 185.025,56.1924 185.692,56.6924 186.5,57C 185.663,58.0113 185.33,59.1779 185.5,60.5C 183.856,60.7135 182.356,60.3802 181,59.5C 180.51,60.7932 180.343,62.1266 180.5,63.5C 142.016,64.1365 103.683,64.8032 65.5,65.5C 64.8333,102.002 64.1667,138.669 63.5,175.5C 60.9259,180.049 58.5926,185.382 56.5,191.5C 55.2921,190.766 53.9587,190.433 52.5,190.5C 52.5,191.5 52.5,192.5 52.5,193.5C 50.2017,194.31 47.8684,195.144 45.5,196C 44.1218,197.713 42.4552,199.047 40.5,200C 33.4718,200.675 26.4718,200.508 19.5,199.5C 17.847,199.34 16.5137,198.674 15.5,197.5C 13.4309,194.427 10.7642,192.094 7.5,190.5C 6.21724,186.909 4.21724,183.909 1.5,181.5C 1.5,181.167 1.5,180.833 1.5,180.5C 1.70621,177.505 1.03954,174.838 -0.5,172.5C -0.5,123.167 -0.5,73.8333 -0.5,24.5C 0.285203,21.5962 1.61854,18.9296 3.5,16.5C 6.2624,14.4044 8.2624,11.7377 9.5,8.5C 15.9632,5.64535 22.2965,2.64535 28.5,-0.5 Z"/></g>
<g><path style="opacity:1" fill="#8b52fe" d="M 327.5,-0.5 C 375.5,-0.5 423.5,-0.5 471.5,-0.5C 474.935,1.0392 478.268,2.87253 481.5,5C 482.793,5.49001 484.127,5.65668 485.5,5.5C 485.833,5.5 486.167,5.5 486.5,5.5C 486.525,8.17901 487.858,9.51234 490.5,9.5C 493.277,11.9505 495.277,14.9505 496.5,18.5C 495.901,21.9476 496.901,24.6143 499.5,26.5C 499.5,75.5 499.5,124.5 499.5,173.5C 498.883,173.611 498.383,173.944 498,174.5C 497.505,176.473 497.338,178.473 497.5,180.5C 496.244,180.904 495.077,181.571 494,182.5C 493.228,182.355 492.561,182.022 492,181.5C 491.82,183.488 491.986,185.488 492.5,187.5C 490.058,187.119 489.391,187.786 490.5,189.5C 488.993,190.739 487.826,190.405 487,188.5C 486.586,188.957 486.086,189.291 485.5,189.5C 484.943,191.718 484.943,194.051 485.5,196.5C 485.167,196.5 484.833,196.5 484.5,196.5C 478.118,198.274 471.618,199.607 465,200.5C 460.351,200.56 455.851,199.893 451.5,198.5C 449.729,195.429 447.896,192.429 446,189.5C 444.989,190.337 443.822,190.67 442.5,190.5C 441.534,188.137 440.034,186.137 438,184.5C 437.229,181.81 436.396,179.144 435.5,176.5C 434.817,176.137 434.15,175.804 433.5,175.5C 433.5,138.833 433.5,102.167 433.5,65.5C 396.33,65.8318 359.33,65.4985 322.5,64.5C 318.691,63.2399 315.358,61.0732 312.5,58C 311.207,57.51 309.873,57.3433 308.5,57.5C 306.833,56.5 305.5,55.1667 304.5,53.5C 302.728,48.7804 300.894,44.1137 299,39.5C 298.335,32.805 298.502,26.1384 299.5,19.5C 302.317,16.542 304.651,13.2087 306.5,9.5C 309.089,8.58062 311.089,6.91395 312.5,4.5C 316.869,2.50332 321.535,1.33665 326.5,1C 327.056,0.617425 327.389,0.117425 327.5,-0.5 Z"/></g>
<g><path style="opacity:0.996" fill="#a67de8" d="M 471.5,-0.5 C 472.5,-0.5 473.5,-0.5 474.5,-0.5C 476.562,0.776331 478.896,1.60966 481.5,2C 483.093,2.94873 484.426,4.11539 485.5,5.5C 484.127,5.65668 482.793,5.49001 481.5,5C 478.268,2.87253 474.935,1.0392 471.5,-0.5 Z"/></g>
<g><path style="opacity:1" fill="#b48eee" d="M 172.5,-0.5 C 173.833,-0.5 175.167,-0.5 176.5,-0.5C 179.655,0.442336 182.655,1.77567 185.5,3.5C 180.605,3.5336 176.272,2.20027 172.5,-0.5 Z"/></g>
<g><path style="opacity:1" fill="#a77feb" d="M 322.5,-0.5 C 324.167,-0.5 325.833,-0.5 327.5,-0.5C 327.389,0.117425 327.056,0.617425 326.5,1C 321.535,1.33665 316.869,2.50332 312.5,4.5C 315.46,2.07006 318.793,0.403389 322.5,-0.5 Z"/></g>
<g><path style="opacity:1" fill="#9870e9" d="M 24.5,-0.5 C 25.8333,-0.5 27.1667,-0.5 28.5,-0.5C 22.2965,2.64535 15.9632,5.64535 9.5,8.5C 13.7803,4.19755 18.7803,1.19755 24.5,-0.5 Z"/></g>
<g><path style="opacity:0.969" fill="#c3a6ec" d="M 185.5,3.5 C 186.71,3.93205 187.71,4.59872 188.5,5.5C 186.821,5.71481 185.821,5.04814 185.5,3.5 Z"/></g>
<g><path style="opacity:1" fill="#aa86eb" d="M 188.5,5.5 C 191.903,7.89981 194.57,10.8998 196.5,14.5C 193.051,12.0592 190.384,9.05922 188.5,5.5 Z"/></g>
<g><path style="opacity:1" fill="#ad88ec" d="M 312.5,4.5 C 311.089,6.91395 309.089,8.58062 306.5,9.5C 307.911,7.08605 309.911,5.41938 312.5,4.5 Z"/></g>
<g><path style="opacity:1" fill="#a77ce8" d="M 486.5,5.5 C 488.167,6.5 489.5,7.83333 490.5,9.5C 487.858,9.51234 486.525,8.17901 486.5,5.5 Z"/></g>
<g><path style="opacity:1" fill="#a37ce6" d="M 9.5,8.5 C 8.2624,11.7377 6.2624,14.4044 3.5,16.5C 4.5293,13.1092 6.5293,10.4426 9.5,8.5 Z"/></g>
<g><path style="opacity:0.922" fill="#a785e5" d="M 306.5,9.5 C 304.651,13.2087 302.317,16.542 299.5,19.5C 300.851,15.4584 303.185,12.1251 306.5,9.5 Z"/></g>
<g><path style="opacity:1" fill="#a176eb" d="M 496.5,18.5 C 497.797,20.3713 498.797,22.3713 499.5,24.5C 499.5,25.1667 499.5,25.8333 499.5,26.5C 496.901,24.6143 495.901,21.9476 496.5,18.5 Z"/></g>
<g><path style="opacity:0.966" fill="#a681ea" d="M 197.5,15.5 C 202.04,22.8802 203.374,30.8802 201.5,39.5C 200.833,40.1667 200.167,40.8333 199.5,41.5C 200.031,38.0343 200.365,34.5343 200.5,31C 199.936,25.7209 198.936,20.5543 197.5,15.5 Z"/></g>
<g><path style="opacity:0.965" fill="#ac87e8" d="M 299.5,19.5 C 298.502,26.1384 298.335,32.805 299,39.5C 300.894,44.1137 302.728,48.7804 304.5,53.5C 296.132,43.1562 294.465,31.8228 299.5,19.5 Z"/></g>
<g><path style="opacity:0.875" fill="#b595e7" d="M 201.5,39.5 C 201.02,42.4432 200.02,45.1098 198.5,47.5C 198.517,45.4352 198.85,43.4352 199.5,41.5C 200.167,40.8333 200.833,40.1667 201.5,39.5 Z"/></g>
<g><path style="opacity:0.847" fill="#ba9dee" d="M 198.5,47.5 C 198.573,49.0269 197.906,50.0269 196.5,50.5C 196.285,48.8212 196.952,47.8212 198.5,47.5 Z"/></g>
<g><path style="opacity:1" fill="#9663f5" d="M 196.5,50.5 C 192.981,57.0146 187.648,61.3479 180.5,63.5C 180.343,62.1266 180.51,60.7932 181,59.5C 182.356,60.3802 183.856,60.7135 185.5,60.5C 185.33,59.1779 185.663,58.0113 186.5,57C 185.692,56.6924 185.025,56.1924 184.5,55.5C 185.757,53.3211 187.257,51.3211 189,49.5C 191.288,51.6562 193.788,51.9896 196.5,50.5 Z"/></g>
<g><path style="opacity:1" fill="#a781ee" d="M 308.5,57.5 C 309.873,57.3433 311.207,57.51 312.5,58C 315.358,61.0732 318.691,63.2399 322.5,64.5C 316.924,63.9092 312.257,61.5759 308.5,57.5 Z"/></g>
<g><path style="opacity:0.977" fill="#8c5fe0" d="M 180.5,63.5 C 179.391,64.29 178.058,64.79 176.5,65C 139.502,65.5 102.502,65.6667 65.5,65.5C 103.683,64.8032 142.016,64.1365 180.5,63.5 Z"/></g>
<g><path style="opacity:0.935" fill="#9063e2" d="M 65.5,65.5 C 65.6667,102.835 65.5,140.168 65,177.5C 63.9103,183.326 61.0769,187.992 56.5,191.5C 58.5926,185.382 60.9259,180.049 63.5,175.5C 64.1667,138.669 64.8333,102.002 65.5,65.5 Z"/></g>
<g><path style="opacity:0.686" fill="#c298f4" d="M -0.5,172.5 C 1.03954,174.838 1.70621,177.505 1.5,180.5C 0.833333,179.167 0.166667,177.833 -0.5,176.5C -0.5,175.167 -0.5,173.833 -0.5,172.5 Z"/></g>
<g><path style="opacity:1" fill="#b087ea" d="M 499.5,173.5 C 499.5,174.5 499.5,175.5 499.5,176.5C 498.833,177.833 498.167,179.167 497.5,180.5C 497.338,178.473 497.505,176.473 498,174.5C 498.383,173.944 498.883,173.611 499.5,173.5 Z"/></g>
<g><path style="opacity:0.988" fill="#ab85ea" d="M 433.5,175.5 C 434.15,175.804 434.817,176.137 435.5,176.5C 436.396,179.144 437.229,181.81 438,184.5C 440.034,186.137 441.534,188.137 442.5,190.5C 442.5,190.833 442.5,191.167 442.5,191.5C 437.643,187.314 434.643,181.981 433.5,175.5 Z"/></g>
<g><path style="opacity:1" fill="#9c6ef1" d="M 497.5,180.5 C 495.417,187.253 491.417,192.586 485.5,196.5C 484.943,194.051 484.943,191.718 485.5,189.5C 486.086,189.291 486.586,188.957 487,188.5C 487.826,190.405 488.993,190.739 490.5,189.5C 489.391,187.786 490.058,187.119 492.5,187.5C 491.986,185.488 491.82,183.488 492,181.5C 492.561,182.022 493.228,182.355 494,182.5C 495.077,181.571 496.244,180.904 497.5,180.5 Z"/></g>
<g><path style="opacity:0.851" fill="#ae8ee7" d="M 1.5,181.5 C 4.21724,183.909 6.21724,186.909 7.5,190.5C 4.76933,188.054 2.76933,185.054 1.5,181.5 Z"/></g>
<g><path style="opacity:1" fill="#af8cef" d="M 7.5,190.5 C 10.7642,192.094 13.4309,194.427 15.5,197.5C 12.2358,195.906 9.56913,193.573 7.5,190.5 Z"/></g>
<g><path style="opacity:1" fill="#9668ee" d="M 451.5,198.5 C 447.637,197.306 444.637,194.973 442.5,191.5C 442.5,191.167 442.5,190.833 442.5,190.5C 443.822,190.67 444.989,190.337 446,189.5C 447.896,192.429 449.729,195.429 451.5,198.5 Z"/></g>
<g><path style="opacity:1" fill="#a47ceb" d="M 56.5,191.5 C 50.3364,198.912 42.3364,202.578 32.5,202.5C 27.8404,202.372 23.507,201.372 19.5,199.5C 26.4718,200.508 33.4718,200.675 40.5,200C 42.4552,199.047 44.1218,197.713 45.5,196C 47.8684,195.144 50.2017,194.31 52.5,193.5C 52.5,192.5 52.5,191.5 52.5,190.5C 53.9587,190.433 55.2921,190.766 56.5,191.5 Z"/></g>
<g><path style="opacity:1" fill="#a880eb" d="M 484.5,196.5 C 476.029,202.389 466.696,203.889 456.5,201C 454.509,200.626 452.842,199.793 451.5,198.5C 455.851,199.893 460.351,200.56 465,200.5C 471.618,199.607 478.118,198.274 484.5,196.5 Z"/></g>
<g><path style="opacity:0.98" fill="#b391e7" d="M 26.5,297.5 C 24.4855,298.924 22.1522,299.59 19.5,299.5C 21.5145,298.076 23.8478,297.41 26.5,297.5 Z"/></g>
<g><path style="opacity:1" fill="#a886e9" d="M 37.5,297.5 C 41.2856,297.32 44.619,298.32 47.5,300.5C 43.7144,300.68 40.381,299.68 37.5,297.5 Z"/></g>
<g><path style="opacity:0.973" fill="#b893e4" d="M 473.5,297.5 C 475.786,297.595 477.786,298.262 479.5,299.5C 476.99,299.946 474.99,299.28 473.5,297.5 Z"/></g>
<g><path style="opacity:1" fill="#8c52fe" d="M 473.5,297.5 C 474.99,299.28 476.99,299.946 479.5,299.5C 480.615,302.08 482.615,303.746 485.5,304.5C 485.167,305.167 484.833,305.833 484.5,306.5C 486.139,307.322 487.805,307.989 489.5,308.5C 490.167,308.5 490.5,308.833 490.5,309.5C 493.985,315.255 496.985,321.255 499.5,327.5C 499.5,376.167 499.5,424.833 499.5,473.5C 497.744,474.552 497.077,476.219 497.5,478.5C 497.5,478.833 497.5,479.167 497.5,479.5C 496.5,479.5 495.5,479.5 494.5,479.5C 493.551,481.737 492.884,484.071 492.5,486.5C 491.167,486.5 489.833,486.5 488.5,486.5C 488.5,487.833 488.5,489.167 488.5,490.5C 484.96,490.377 482.96,492.043 482.5,495.5C 479.513,495.998 476.513,496.498 473.5,497C 472.244,497.417 471.577,498.25 471.5,499.5C 424.167,499.5 376.833,499.5 329.5,499.5C 324.889,497.6 319.889,496.267 314.5,495.5C 313.956,493.42 313.122,491.42 312,489.5C 309.761,490.869 307.927,490.369 306.5,488C 306.833,487.667 307.167,487.333 307.5,487C 305.137,486.411 304.137,484.911 304.5,482.5C 303.5,482.5 302.5,482.5 301.5,482.5C 298.721,474.394 297.888,466.06 299,457.5C 299.837,455.156 301.171,453.156 303,451.5C 303.505,449.482 304.005,447.482 304.5,445.5C 307.764,443.906 310.431,441.573 312.5,438.5C 314.848,438.408 316.514,437.408 317.5,435.5C 317.833,435.5 318.167,435.5 318.5,435.5C 356.99,434.883 395.324,434.216 433.5,433.5C 434.191,396.646 434.858,359.646 435.5,322.5C 435.5,321.167 435.5,319.833 435.5,318.5C 435.461,315.911 436.461,313.911 438.5,312.5C 440.89,311.109 442.557,309.109 443.5,306.5C 449.422,303.894 455.089,300.894 460.5,297.5C 464.801,296.227 469.135,296.227 473.5,297.5 Z"/></g>
<g><path style="opacity:1" fill="#8c52fe" d="M 37.5,297.5 C 40.381,299.68 43.7144,300.68 47.5,300.5C 52.0685,302.402 55.7352,305.402 58.5,309.5C 58.427,311.027 59.0937,312.027 60.5,312.5C 60.427,314.027 61.0937,315.027 62.5,315.5C 62.5,315.833 62.5,316.167 62.5,316.5C 64.0434,355.625 65.0434,394.625 65.5,433.5C 101.998,434.333 138.664,434.833 175.5,435C 179.188,437.341 183.188,439.008 187.5,440C 189.478,443.986 192.478,446.82 196.5,448.5C 197.983,454.376 199.316,460.376 200.5,466.5C 200.249,470.913 199.582,475.246 198.5,479.5C 195.306,479.176 194.306,480.342 195.5,483C 191.534,484.468 189.201,487.301 188.5,491.5C 184.894,493.276 181.227,494.943 177.5,496.5C 174.231,495.068 171.898,496.068 170.5,499.5C 121.833,499.5 73.1667,499.5 24.5,499.5C 22.5,498.5 20.5,497.5 18.5,496.5C 18.0472,495.542 17.3805,494.708 16.5,494C 16.8333,493.667 17.1667,493.333 17.5,493C 14.7206,492.439 12.054,491.606 9.5,490.5C 9.54967,487.802 8.54967,485.636 6.5,484C 6.83333,483.667 7.16667,483.333 7.5,483C 6.34738,481.117 4.68072,480.284 2.5,480.5C 2.86236,476.919 1.86236,473.919 -0.5,471.5C -0.5,423.167 -0.5,374.833 -0.5,326.5C 2.0822,320.651 4.74886,314.651 7.5,308.5C 11.6267,305.493 15.6267,302.493 19.5,299.5C 22.1522,299.59 24.4855,298.924 26.5,297.5C 30.2684,296.213 33.9351,296.213 37.5,297.5 Z"/></g>
<g><path style="opacity:1" fill="#9c73e7" d="M 460.5,297.5 C 455.089,300.894 449.422,303.894 443.5,306.5C 447.854,301.155 453.521,298.155 460.5,297.5 Z"/></g>
<g><path style="opacity:1" fill="#a37de5" d="M 19.5,299.5 C 15.6267,302.493 11.6267,305.493 7.5,308.5C 10.3635,303.968 14.3635,300.968 19.5,299.5 Z"/></g>
<g><path style="opacity:1" fill="#9669ee" d="M 479.5,299.5 C 483.542,300.851 486.875,303.185 489.5,306.5C 489.5,307.167 489.5,307.833 489.5,308.5C 487.805,307.989 486.139,307.322 484.5,306.5C 484.833,305.833 485.167,305.167 485.5,304.5C 482.615,303.746 480.615,302.08 479.5,299.5 Z"/></g>
<g><path style="opacity:1" fill="#ac8de9" d="M 489.5,306.5 C 491.914,307.911 493.581,309.911 494.5,312.5C 493.167,311.5 491.833,310.5 490.5,309.5C 490.5,308.833 490.167,308.5 489.5,308.5C 489.5,307.833 489.5,307.167 489.5,306.5 Z"/></g>
<g><path style="opacity:1" fill="#ad8aec" d="M 443.5,306.5 C 442.557,309.109 440.89,311.109 438.5,312.5C 439.473,309.865 441.14,307.865 443.5,306.5 Z"/></g>
<g><path style="opacity:0.686" fill="#bd9ef0" d="M 58.5,309.5 C 59.9063,309.973 60.573,310.973 60.5,312.5C 59.0937,312.027 58.427,311.027 58.5,309.5 Z"/></g>
<g><path style="opacity:1" fill="#9e73ec" d="M 7.5,308.5 C 4.74886,314.651 2.0822,320.651 -0.5,326.5C -0.5,325.167 -0.5,323.833 -0.5,322.5C 0.602676,316.964 3.26934,312.297 7.5,308.5 Z"/></g>
<g><path style="opacity:0.388" fill="#d3bbfc" d="M 60.5,312.5 C 61.9063,312.973 62.573,313.973 62.5,315.5C 61.0937,315.027 60.427,314.027 60.5,312.5 Z"/></g>
<g><path style="opacity:1" fill="#9668f0" d="M 490.5,309.5 C 491.833,310.5 493.167,311.5 494.5,312.5C 496.715,315.596 498.381,318.929 499.5,322.5C 499.5,324.167 499.5,325.833 499.5,327.5C 496.985,321.255 493.985,315.255 490.5,309.5 Z"/></g>
<g><path style="opacity:0.639" fill="#c2a1f2" d="M 63.5,318.5 C 64.9238,320.515 65.5905,322.848 65.5,325.5C 64.0762,323.485 63.4095,321.152 63.5,318.5 Z"/></g>
<g><path style="opacity:0.639" fill="#c2a2f3" d="M 435.5,318.5 C 435.5,319.833 435.5,321.167 435.5,322.5C 434.833,323.5 434.167,324.5 433.5,325.5C 433.41,322.848 434.076,320.515 435.5,318.5 Z"/></g>
<g><path style="opacity:0.928" fill="#895be0" d="M 62.5,316.5 C 63.3382,316.842 63.6716,317.508 63.5,318.5C 63.4095,321.152 64.0762,323.485 65.5,325.5C 65.5,361.5 65.5,397.5 65.5,433.5C 65.0434,394.625 64.0434,355.625 62.5,316.5 Z"/></g>
<g><path style="opacity:0.946" fill="#865bde" d="M 435.5,322.5 C 434.858,359.646 434.191,396.646 433.5,433.5C 433.5,397.5 433.5,361.5 433.5,325.5C 434.167,324.5 434.833,323.5 435.5,322.5 Z"/></g>
<g><path style="opacity:0.988" fill="#8d62e1" d="M 65.5,433.5 C 102.502,433.333 139.502,433.5 176.5,434C 178.247,434.352 179.914,434.852 181.5,435.5C 182.183,437.176 183.517,437.843 185.5,437.5C 190.188,440.188 193.855,443.855 196.5,448.5C 192.478,446.82 189.478,443.986 187.5,440C 183.188,439.008 179.188,437.341 175.5,435C 138.664,434.833 101.998,434.333 65.5,433.5 Z"/></g>
<g><path style="opacity:0.98" fill="#885edf" d="M 433.5,433.5 C 395.324,434.216 356.99,434.883 318.5,435.5C 319.609,434.71 320.942,434.21 322.5,434C 359.498,433.5 396.498,433.333 433.5,433.5 Z"/></g>
<g><path style="opacity:0.839" fill="#c5aaec" d="M 181.5,435.5 C 183.153,435.66 184.486,436.326 185.5,437.5C 183.517,437.843 182.183,437.176 181.5,435.5 Z"/></g>
<g><path style="opacity:0.82" fill="#c1a3f2" d="M 317.5,435.5 C 316.514,437.408 314.848,438.408 312.5,438.5C 313.659,436.75 315.326,435.75 317.5,435.5 Z"/></g>
<g><path style="opacity:1" fill="#ab87ec" d="M 312.5,438.5 C 310.431,441.573 307.764,443.906 304.5,445.5C 306.569,442.427 309.236,440.094 312.5,438.5 Z"/></g>
<g><path style="opacity:0.965" fill="#a27ae9" d="M 304.5,445.5 C 304.005,447.482 303.505,449.482 303,451.5C 301.171,453.156 299.837,455.156 299,457.5C 297.888,466.06 298.721,474.394 301.5,482.5C 302.5,482.5 303.5,482.5 304.5,482.5C 304.137,484.911 305.137,486.411 307.5,487C 307.167,487.333 306.833,487.667 306.5,488C 307.927,490.369 309.761,490.869 312,489.5C 313.122,491.42 313.956,493.42 314.5,495.5C 304.544,490.617 298.711,482.617 297,471.5C 295.545,461.556 298.045,452.889 304.5,445.5 Z"/></g>
<g><path style="opacity:0.992" fill="#a680e8" d="M -0.5,471.5 C 1.86236,473.919 2.86236,476.919 2.5,480.5C 1.20278,478.629 0.202776,476.629 -0.5,474.5C -0.5,473.5 -0.5,472.5 -0.5,471.5 Z"/></g>
<g><path style="opacity:0.98" fill="#b695e3" d="M 499.5,473.5 C 499.5,473.833 499.5,474.167 499.5,474.5C 498.833,475.833 498.167,477.167 497.5,478.5C 497.077,476.219 497.744,474.552 499.5,473.5 Z"/></g>
<g><path style="opacity:1" fill="#a074ef" d="M 196.5,448.5 C 198.136,449.749 199.303,451.416 200,453.5C 206.165,476.172 198.332,491.505 176.5,499.5C 174.5,499.5 172.5,499.5 170.5,499.5C 171.898,496.068 174.231,495.068 177.5,496.5C 181.227,494.943 184.894,493.276 188.5,491.5C 189.201,487.301 191.534,484.468 195.5,483C 194.306,480.342 195.306,479.176 198.5,479.5C 199.582,475.246 200.249,470.913 200.5,466.5C 199.316,460.376 197.983,454.376 196.5,448.5 Z"/></g>
<g><path style="opacity:1" fill="#9465f0" d="M 2.5,480.5 C 4.68072,480.284 6.34738,481.117 7.5,483C 7.16667,483.333 6.83333,483.667 6.5,484C 8.54967,485.636 9.54967,487.802 9.5,490.5C 6.18477,487.875 3.85144,484.542 2.5,480.5 Z"/></g>
<g><path style="opacity:1" fill="#a077ea" d="M 497.5,479.5 C 494.537,486.795 489.537,492.129 482.5,495.5C 482.96,492.043 484.96,490.377 488.5,490.5C 488.5,489.167 488.5,487.833 488.5,486.5C 489.833,486.5 491.167,486.5 492.5,486.5C 492.884,484.071 493.551,481.737 494.5,479.5C 495.5,479.5 496.5,479.5 497.5,479.5 Z"/></g>
<g><path style="opacity:1" fill="#9a6ced" d="M 9.5,490.5 C 12.054,491.606 14.7206,492.439 17.5,493C 17.1667,493.333 16.8333,493.667 16.5,494C 17.3805,494.708 18.0472,495.542 18.5,496.5C 14.9505,495.277 11.9505,493.277 9.5,490.5 Z"/></g>
<g><path style="opacity:1" fill="#a47ae4" d="M 482.5,495.5 C 479.921,497.025 477.254,498.359 474.5,499.5C 473.5,499.5 472.5,499.5 471.5,499.5C 471.577,498.25 472.244,497.417 473.5,497C 476.513,496.498 479.513,495.998 482.5,495.5 Z"/></g>
<g><path style="opacity:1" fill="#9e6ef2" d="M 314.5,495.5 C 319.889,496.267 324.889,497.6 329.5,499.5C 327.167,499.5 324.833,499.5 322.5,499.5C 319.596,498.715 316.93,497.381 314.5,495.5 Z"/></g>
</svg>
