<svg xmlns="http://www.w3.org/2000/svg" width="398" height="467" viewBox="0 0 398 467" version="1.1"><path d="" stroke="none" fill="#a988ec" fill-rule="evenodd"/><path d="M 51 2.356 C 26.329 11.139, 8.791 29.641, 2.067 53.980 C -1.183 65.741, -1.188 400.254, 2.061 411.979 C 22.671 486.351, 129.069 484.267, 146.705 409.146 C 149.483 397.311, 149.483 68.689, 146.705 56.854 C 140.519 30.504, 120.495 9.431, 94.002 1.388 C 85.918 -1.066, 58.904 -0.458, 51 2.356 M 301 2.390 C 289.476 6.420, 275.434 15.237, 269.500 22.170 C 260.468 32.722, 255.003 42.885, 251.694 55.280 L 249.500 63.500 249.500 232.500 C 249.500 422.591, 248.932 408.193, 257.102 425.089 C 287.080 487.079, 379.017 477.904, 396.072 411.220 C 399.085 399.437, 399.084 66.557, 396.070 54.774 C 385.702 14.236, 339.666 -11.130, 301 2.390" stroke="none" fill="#8b54fb" fill-rule="evenodd"/></svg>