<svg xmlns="http://www.w3.org/2000/svg" width="550" height="453" viewBox="0 0 550 453" version="1.1"><path d="M 502 3.235 C 522.597 12.296, 532.433 20.508, 542.213 36.810 C 544.421 40.489, 545.929 42.600, 545.565 41.500 C 540.767 27.007, 511.632 1.426, 500.657 2.068 C 500.021 2.105, 500.625 2.630, 502 3.235 M 445.545 7.094 C 433.316 13.284, 420.577 26.007, 414.398 38.202 C 410.481 45.931, 411.697 45.098, 416.152 37 C 421.940 26.479, 434.836 13.849, 445.500 8.257 C 449.900 5.950, 453.050 4.066, 452.500 4.071 C 451.950 4.076, 448.820 5.436, 445.545 7.094 M 16.500 13.491 C 15.950 13.675, 14.271 14.096, 12.768 14.427 C 9.674 15.109, 3.459 20.213, 1.858 23.387 C 1.272 24.549, 2.174 23.871, 3.862 21.880 C 7.926 17.086, 12.608 15, 19.300 15 C 24.938 15, 26.984 15.832, 41.250 23.928 C 44.413 25.723, 47 26.971, 47 26.701 C 47 26.432, 42.501 23.642, 37.001 20.501 C 26.235 14.351, 20.154 12.272, 16.500 13.491 M 53 30.449 C 53 30.724, 54.350 31.647, 56 32.500 C 57.650 33.353, 59 33.826, 59 33.551 C 59 33.276, 57.650 32.353, 56 31.500 C 54.350 30.647, 53 30.174, 53 30.449 M 60 34.403 C 60 34.624, 67.763 39.194, 77.250 44.557 C 97.025 55.736, 96.860 55.647, 95.500 54.309 C 93.211 52.055, 60 33.433, 60 34.403 M 97 55.449 C 97 55.724, 98.350 56.647, 100 57.500 C 101.650 58.353, 103 58.826, 103 58.551 C 103 58.276, 101.650 57.353, 100 56.500 C 98.350 55.647, 97 55.174, 97 55.449 M 104 59.362 C 104 59.625, 112.213 64.534, 122.250 70.271 C 143.330 82.317, 145 83.225, 145 82.631 C 145 82.309, 117.827 66.558, 104.750 59.298 C 104.338 59.069, 104 59.098, 104 59.362 M 146 83.449 C 146 83.724, 147.350 84.647, 149 85.500 C 150.650 86.353, 152 86.826, 152 86.551 C 152 86.276, 150.650 85.353, 149 84.500 C 147.350 83.647, 146 83.174, 146 83.449 M 153 87.360 C 153 87.623, 159.637 91.632, 167.750 96.270 C 185.311 106.310, 187 107.215, 187 106.593 C 187 106.330, 179.688 101.980, 170.750 96.925 C 161.813 91.870, 154.162 87.542, 153.750 87.308 C 153.338 87.074, 153 87.097, 153 87.360 M 188.500 107.702 C 189.050 108.270, 191.750 109.993, 194.500 111.532 C 197.250 113.070, 199.050 113.865, 198.500 113.298 C 197.950 112.730, 195.250 111.007, 192.500 109.468 C 189.750 107.930, 187.950 107.135, 188.500 107.702 M 202 115.360 C 202 115.623, 208.637 119.632, 216.750 124.270 C 234.311 134.310, 236 135.215, 236 134.593 C 236 134.330, 228.688 129.980, 219.750 124.925 C 210.813 119.870, 203.162 115.542, 202.750 115.308 C 202.338 115.074, 202 115.097, 202 115.360 M 237 135.449 C 237 135.724, 238.350 136.647, 240 137.500 C 241.650 138.353, 243 138.826, 243 138.551 C 243 138.276, 241.650 137.353, 240 136.500 C 238.350 135.647, 237 135.174, 237 135.449 M 244 139.326 C 244 139.609, 252.213 144.534, 262.250 150.271 C 283.535 162.434, 285 163.228, 285 162.593 C 285 162.330, 277.688 157.978, 268.750 152.921 C 259.813 147.864, 250.588 142.620, 248.250 141.268 C 245.912 139.916, 244 139.042, 244 139.326 M 286 163.449 C 286 163.724, 287.350 164.647, 289 165.500 C 290.650 166.353, 292 166.826, 292 166.551 C 292 166.276, 290.650 165.353, 289 164.500 C 287.350 163.647, 286 163.174, 286 163.449 M 293 167.449 C 293 167.724, 294.350 168.647, 296 169.500 C 297.650 170.353, 299 170.826, 299 170.551 C 299 170.276, 297.650 169.353, 296 168.500 C 294.350 167.647, 293 167.174, 293 167.449 M 300 171.362 C 300 171.625, 308.212 176.534, 318.250 182.271 C 339.532 194.433, 341 195.228, 341 194.594 C 341 194.221, 325.797 185.424, 300.750 171.305 C 300.337 171.072, 300 171.098, 300 171.362 M 342 195.449 C 342 195.724, 343.350 196.647, 345 197.500 C 346.650 198.353, 348 198.826, 348 198.551 C 348 198.276, 346.650 197.353, 345 196.500 C 343.350 195.647, 342 195.174, 342 195.449 M 349 199.332 C 349 199.618, 351.587 201.311, 354.750 203.093 C 366.788 209.876, 370.795 213.008, 372.915 217.292 C 374.061 219.606, 374.999 220.780, 374.999 219.900 C 375.001 216.749, 369.099 210.204, 363.330 206.958 C 360.124 205.155, 355.587 202.583, 353.250 201.244 C 350.913 199.905, 349 199.045, 349 199.332 M 375.286 226.500 C 375.294 229.250, 375.488 230.256, 375.718 228.736 C 375.947 227.216, 375.941 224.966, 375.704 223.736 C 375.467 222.506, 375.279 223.750, 375.286 226.500 M 372.227 236.026 C 370.681 238.712, 367.821 241.205, 362.994 244.073 C 355.752 248.375, 353.558 250.311, 359.250 247.375 C 367.791 242.971, 376.778 234.445, 374.880 232.547 C 374.653 232.320, 373.459 233.885, 372.227 236.026 M 349.250 252.030 C 346.363 253.686, 344 255.275, 344 255.562 C 344 256.109, 352.802 251.285, 354.450 249.835 C 356.202 248.295, 354.539 248.997, 349.250 252.030 M 321 268.112 C 310.275 274.221, 301.050 279.686, 300.500 280.256 C 299.199 281.606, 298.161 282.165, 321.250 269.078 C 338.124 259.514, 342.202 256.988, 340.750 257.002 C 340.613 257.004, 331.725 262.003, 321 268.112 M 295.750 282.572 C 292.012 284.600, 292.239 285.445, 296 283.500 C 297.650 282.647, 299 281.735, 299 281.474 C 299 280.831, 298.893 280.867, 295.750 282.572 M 268.500 298.113 C 259.700 303.122, 252.050 307.687, 251.500 308.257 C 250.222 309.582, 249.408 310.015, 268.750 299.075 C 282.597 291.244, 286.184 288.986, 284.750 289.003 C 284.613 289.005, 277.300 293.104, 268.500 298.113 M 246.750 310.572 C 243.012 312.600, 243.239 313.445, 247 311.500 C 248.650 310.647, 250 309.735, 250 309.474 C 250 308.831, 249.893 308.867, 246.750 310.572 M 239.750 314.572 C 236.012 316.600, 236.239 317.445, 240 315.500 C 241.650 314.647, 243 313.735, 243 313.474 C 243 312.831, 242.893 312.867, 239.750 314.572 M 216 328.112 C 205.275 334.221, 196.050 339.694, 195.500 340.274 C 194.950 340.854, 196.525 340.192, 199 338.801 C 231.190 320.720, 237.486 316.985, 235.750 317.002 C 235.613 317.004, 226.725 322.003, 216 328.112 M 170.500 354.120 C 157.850 361.321, 147.050 367.690, 146.500 368.271 C 145.376 369.460, 146.646 368.764, 174.250 353.051 C 191.141 343.436, 195.185 340.939, 193.750 341.013 C 193.613 341.020, 183.150 346.918, 170.500 354.120 M 125 380.112 C 114.275 386.221, 105.050 391.686, 104.500 392.256 C 103.174 393.631, 102.397 394.051, 125.250 381.047 C 142.224 371.388, 146.108 368.989, 144.750 369.002 C 144.613 369.004, 135.725 374.003, 125 380.112 M 96.250 396.573 C 92.813 398.522, 90 400.348, 90 400.631 C 90 401.185, 100.869 395.264, 102.450 393.850 C 104.209 392.276, 102.533 393.012, 96.250 396.573 M 409.015 399.583 C 409.024 400.637, 409.487 402.175, 410.046 403 C 410.787 404.095, 410.880 403.691, 410.390 401.500 C 409.567 397.823, 408.995 397.025, 409.015 399.583 M 71.238 410.854 C 56.031 419.520, 47.786 424.671, 55 420.998 C 60.537 418.179, 89 401.773, 89 401.400 C 89 400.730, 89.030 400.714, 71.238 410.854 M 412.025 408.500 C 412.019 413.024, 424.174 429.218, 433.056 436.520 C 438.899 441.323, 451.632 448.702, 452.529 447.804 C 452.718 447.615, 449.414 445.685, 445.187 443.516 C 434.898 438.236, 421.927 425.497, 416.152 415 C 413.883 410.875, 412.026 407.950, 412.025 408.500 M 542.656 414.244 C 533.519 430.609, 524.128 438.603, 502 448.853 L 499.500 450.011 502 449.419 C 516.791 445.917, 536.051 429.456, 544.429 413.157 C 547.182 407.801, 545.770 408.667, 542.656 414.244 M 43.750 426.572 C 40.012 428.600, 40.239 429.445, 44 427.500 C 45.650 426.647, 47 425.735, 47 425.474 C 47 424.831, 46.893 424.867, 43.750 426.572 M 1 427.830 C 1 432.462, 14.971 439.629, 21.683 438.440 C 25.492 437.765, 40.516 430.183, 39.687 429.354 C 39.447 429.113, 36.381 430.600, 32.875 432.658 C 21.901 439.099, 11.359 438.460, 4.566 430.941 C 2.605 428.770, 1 427.371, 1 427.830 M 474.750 452.732 C 477.087 452.943, 480.913 452.943, 483.250 452.732 C 485.587 452.522, 483.675 452.349, 479 452.349 C 474.325 452.349, 472.413 452.522, 474.750 452.732" stroke="none" fill="#b493f4" fill-rule="evenodd"/><path d="M 461.230 2.015 C 437.151 8.324, 416.698 28.386, 409.803 52.459 L 407.500 60.500 407.500 226 L 407.500 391.500 409.803 399.541 C 429.206 467.281, 527.084 469.392, 547.658 402.514 L 549.500 396.528 550.043 410.514 C 550.342 418.206, 550.580 334.725, 550.572 225 C 550.564 115.275, 550.399 32.250, 550.205 40.500 L 549.853 55.500 547.514 48.706 C 535.376 13.444, 496.957 -7.346, 461.230 2.015 M 10.500 16.464 C 8.850 17.323, 6.038 19.670, 4.250 21.679 L 1 25.333 1 226.132 L 1 426.930 4.234 430.614 C 8.295 435.239, 12.454 437, 19.319 437 C 24.684 437, 26.256 436.388, 38.629 429.480 C 45.979 425.377, 282.077 290.538, 307 276.210 C 319.925 268.780, 332.525 261.580, 335 260.210 C 371.091 240.241, 375 236.945, 375 226.478 C 375 213.367, 390.913 223.664, 219 125.540 C 141.175 81.120, 70.300 40.631, 61.500 35.564 C 24.957 14.526, 27.106 15.579, 20 15.225 C 15.517 15.002, 12.569 15.387, 10.500 16.464" stroke="none" fill="#8b54fb" fill-rule="evenodd"/></svg>